<svg xmlns="http://www.w3.org/2000/svg" version="1.1" xmlns:xlink="http://www.w3.org/1999/xlink" xmlns:svgjs="http://svgjs.com/svgjs" width="1440" height="560" preserveAspectRatio="none" viewBox="0 0 1440 560"><g mask="url(&quot;#SvgjsMask1055&quot;)" fill="none"><rect width="1440" height="560" x="0" y="0" fill="#0e2a47"></rect><path d="M0,399.956C77.905,405.476,156.894,388.55,223.568,347.879C291.138,306.661,339.117,241.807,374.952,171.235C411.939,98.394,439.605,19.24,431.731,-62.074C423.659,-145.427,383.481,-221.534,330.626,-286.489C276.595,-352.889,208.829,-407.665,127.873,-435.494C44.627,-464.11,-45.614,-467.695,-130.682,-445.063C-217.112,-422.068,-287.586,-366.522,-354.486,-307.164C-430.14,-240.039,-534.772,-178.94,-544.124,-78.233C-553.501,22.743,-466.058,105.739,-399.975,182.662C-347.244,244.043,-275.198,278.947,-204.093,317.576C-138.295,353.322,-74.694,394.663,0,399.956" fill="#0b2037"></path><path d="M1440 870.588C1501.102 865.6220000000001 1562.931 864.423 1616.591 834.781 1672.487 803.904 1715.259 755.512 1747.7939999999999 700.565 1783.137 640.876 1820.82 575.327 1810.867 506.677 1800.917 438.047 1748.49 383.291 1695.338 338.749 1647.412 298.587 1584.261 289.977 1525.801 267.788 1461.555 243.40300000000002 1402.77 191.414 1334.861 201.928 1265.176 212.71699999999998 1216.052 272.797 1166.896 323.35400000000004 1115.08 376.64599999999996 1045.459 428.557 1042.305 502.82 1039.155 576.987 1115.142 627.0070000000001 1151.247 691.869 1183.754 750.266 1187.117 829.89 1243.9470000000001 865.0640000000001 1300.686 900.182 1373.491 875.9929999999999 1440 870.588" fill="#113457"></path></g><defs><mask id="SvgjsMask1055"><rect width="1440" height="560" fill="#ffffff"></rect></mask></defs></svg>