<svg   id="chart"   width="1000"   height="500"   viewBox="0 100 1000 300"   xmlns="http://www.w3.org/2000/svg" >      <path d="M 0,494.1647099540056 C 10.600000000000001,492.21213375345656 31.799999999999997,491.78573621354593 53,484.4018289512603 C 74.2,477.0179216889747 84.8,462.29118173577683 106,457.2451736425776 C 127.2,452.19916554937834 137.8,464.1030936963275 159,459.17178848526396 C 180.2,454.2404832742004 190.8,446.82190209035235 212,432.5886475872599 C 233.2,418.3553930841675 243.8,402.0392347671993 265,388.0055159698017 C 286.2,373.97179717240414 296.8,373.4440619132199 318,362.4200536002721 C 339.2,351.39604528732434 349.8,333.71111390944634 371,332.8854744050629 C 392.2,332.05983490067945 402.8,353.5535413195854 424,358.2918560783549 C 445.2,363.0301708371244 455.8,371.4242334280691 477,356.5770481989104 C 498.2,341.7298629697517 508.8,284.34576368452076 530,284.0559299325614 C 551.2,283.76609618060206 561.8,371.5508150059145 583,355.1278794391136 C 604.2,338.7049438723127 614.8,207.9552014575816 636,201.94125209855684 C 657.2,195.92730273953208 667.8,304.32681008194834 689,325.0581326439898 C 710.2,345.7894552060312 720.8,323.7278502273752 742,305.59786490876417 C 763.2,287.46787959015313 773.8,276.02530224615407 795,234.40820605093455 C 816.2,192.79110985571506 826.8,117.9101327411077 848,97.51238393266675 C 869.2,77.11463512422581 879.8,140.9588601947362 901,132.41946200872985 C 922.2,123.88006382272351 932.8,42.855653786308565 954,54.81539300263506 C 975.2,66.77513221896156 996.4,164.73760507281688 1007,192.21815809036235,L 1000 500,L 0 500Z" fill="#444cf71a" />   <path d="M 0,494.1647099540056 C 10.600000000000001,492.21213375345656 31.799999999999997,491.78573621354593 53,484.4018289512603 C 74.2,477.0179216889747 84.8,462.29118173577683 106,457.2451736425776 C 127.2,452.19916554937834 137.8,464.1030936963275 159,459.17178848526396 C 180.2,454.2404832742004 190.8,446.82190209035235 212,432.5886475872599 C 233.2,418.3553930841675 243.8,402.0392347671993 265,388.0055159698017 C 286.2,373.97179717240414 296.8,373.4440619132199 318,362.4200536002721 C 339.2,351.39604528732434 349.8,333.71111390944634 371,332.8854744050629 C 392.2,332.05983490067945 402.8,353.5535413195854 424,358.2918560783549 C 445.2,363.0301708371244 455.8,371.4242334280691 477,356.5770481989104 C 498.2,341.7298629697517 508.8,284.34576368452076 530,284.0559299325614 C 551.2,283.76609618060206 561.8,371.5508150059145 583,355.1278794391136 C 604.2,338.7049438723127 614.8,207.9552014575816 636,201.94125209855684 C 657.2,195.92730273953208 667.8,304.32681008194834 689,325.0581326439898 C 710.2,345.7894552060312 720.8,323.7278502273752 742,305.59786490876417 C 763.2,287.46787959015313 773.8,276.02530224615407 795,234.40820605093455 C 816.2,192.79110985571506 826.8,117.9101327411077 848,97.51238393266675 C 869.2,77.11463512422581 879.8,140.9588601947362 901,132.41946200872985 C 922.2,123.88006382272351 932.8,42.855653786308565 954,54.81539300263506 C 975.2,66.77513221896156 996.4,164.73760507281688 1007,192.21815809036235" fill="none" stroke="#444cf7" stroke-width="4px" />   <g>   		<circle cx="0" cy="494.1647099540056" r="8" fill="#444cf7" />,		<circle cx="53" cy="484.4018289512603" r="8" fill="#444cf7" />,		<circle cx="106" cy="457.2451736425776" r="8" fill="#444cf7" />,		<circle cx="159" cy="459.17178848526396" r="8" fill="#444cf7" />,		<circle cx="212" cy="432.5886475872599" r="8" fill="#444cf7" />,		<circle cx="265" cy="388.0055159698017" r="8" fill="#444cf7" />,		<circle cx="318" cy="362.4200536002721" r="8" fill="#444cf7" />,		<circle cx="371" cy="332.8854744050629" r="8" fill="#444cf7" />,		<circle cx="424" cy="358.2918560783549" r="8" fill="#444cf7" />,		<circle cx="477" cy="356.5770481989104" r="8" fill="#444cf7" />,		<circle cx="530" cy="284.0559299325614" r="8" fill="#444cf7" />,		<circle cx="583" cy="355.1278794391136" r="8" fill="#444cf7" />,		<circle cx="636" cy="201.94125209855684" r="8" fill="#444cf7" />,		<circle cx="689" cy="325.0581326439898" r="8" fill="#444cf7" />,		<circle cx="742" cy="305.59786490876417" r="8" fill="#444cf7" />,		<circle cx="795" cy="234.40820605093455" r="8" fill="#444cf7" />,		<circle cx="848" cy="97.51238393266675" r="8" fill="#444cf7" />,		<circle cx="901" cy="132.41946200872985" r="8" fill="#444cf7" />,		<circle cx="954" cy="54.81539300263506" r="8" fill="#444cf7" />,		<circle cx="1007" cy="192.21815809036235" r="8" fill="#444cf7" />   </g> </svg>