<svg xmlns="http://www.w3.org/2000/svg" version="1.1" xmlns:xlink="http://www.w3.org/1999/xlink" xmlns:svgjs="http://svgjs.dev/svgjs" viewBox="0 0 800 800"><defs><linearGradient x1="50%" y1="0%" x2="50%" y2="100%" id="cccoil-grad"><stop stop-color="hsl(184, 74%, 44%)" stop-opacity="1" offset="0%"></stop><stop stop-color="hsl(332, 87%, 70%)" stop-opacity="1" offset="100%"></stop></linearGradient></defs><g stroke="url(#cccoil-grad)" fill="none" stroke-linecap="round"><circle r="342" cx="400" cy="400" stroke-width="7" stroke-dasharray="2149 2149" transform="rotate(360, 400, 400)" stroke-dashoffset="292" opacity="0.65"></circle><circle r="333" cx="400" cy="400" stroke-width="7" stroke-dasharray="2036 2092" transform="rotate(350, 400, 400)" stroke-dashoffset="292" opacity="0.27"></circle><circle r="324" cx="400" cy="400" stroke-width="7" stroke-dasharray="1926 2036" transform="rotate(341, 400, 400)" stroke-dashoffset="292" opacity="0.23"></circle><circle r="315" cx="400" cy="400" stroke-width="7" stroke-dasharray="1819 1979" transform="rotate(331, 400, 400)" stroke-dashoffset="292" opacity="0.73"></circle><circle r="306" cx="400" cy="400" stroke-width="7" stroke-dasharray="1715 1923" transform="rotate(321, 400, 400)" stroke-dashoffset="292" opacity="0.27"></circle><circle r="297" cx="400" cy="400" stroke-width="7" stroke-dasharray="1614 1866" transform="rotate(311, 400, 400)" stroke-dashoffset="292" opacity="0.72"></circle><circle r="288" cx="400" cy="400" stroke-width="7" stroke-dasharray="1516 1810" transform="rotate(302, 400, 400)" stroke-dashoffset="292" opacity="0.43"></circle><circle r="279" cx="400" cy="400" stroke-width="7" stroke-dasharray="1421 1753" transform="rotate(292, 400, 400)" stroke-dashoffset="292" opacity="0.30"></circle><circle r="270" cx="400" cy="400" stroke-width="7" stroke-dasharray="1330 1696" transform="rotate(282, 400, 400)" stroke-dashoffset="292" opacity="0.84"></circle><circle r="261" cx="400" cy="400" stroke-width="7" stroke-dasharray="1241 1640" transform="rotate(272, 400, 400)" stroke-dashoffset="292" opacity="0.94"></circle><circle r="252" cx="400" cy="400" stroke-width="7" stroke-dasharray="1155 1583" transform="rotate(263, 400, 400)" stroke-dashoffset="292" opacity="0.35"></circle><circle r="243" cx="400" cy="400" stroke-width="7" stroke-dasharray="1073 1527" transform="rotate(253, 400, 400)" stroke-dashoffset="292" opacity="0.46"></circle><circle r="234" cx="400" cy="400" stroke-width="7" stroke-dasharray="993 1470" transform="rotate(243, 400, 400)" stroke-dashoffset="292" opacity="0.22"></circle><circle r="225" cx="400" cy="400" stroke-width="7" stroke-dasharray="917 1414" transform="rotate(234, 400, 400)" stroke-dashoffset="292" opacity="0.74"></circle><circle r="216" cx="400" cy="400" stroke-width="7" stroke-dasharray="844 1357" transform="rotate(224, 400, 400)" stroke-dashoffset="292" opacity="0.65"></circle><circle r="207" cx="400" cy="400" stroke-width="7" stroke-dasharray="773 1301" transform="rotate(214, 400, 400)" stroke-dashoffset="292" opacity="0.14"></circle><circle r="198" cx="400" cy="400" stroke-width="7" stroke-dasharray="706 1244" transform="rotate(204, 400, 400)" stroke-dashoffset="292" opacity="0.47"></circle><circle r="189" cx="400" cy="400" stroke-width="7" stroke-dasharray="642 1188" transform="rotate(195, 400, 400)" stroke-dashoffset="292" opacity="0.71"></circle><circle r="180" cx="400" cy="400" stroke-width="7" stroke-dasharray="581 1131" transform="rotate(185, 400, 400)" stroke-dashoffset="292" opacity="0.37"></circle><circle r="171" cx="400" cy="400" stroke-width="7" stroke-dasharray="523 1074" transform="rotate(175, 400, 400)" stroke-dashoffset="292" opacity="0.68"></circle><circle r="162" cx="400" cy="400" stroke-width="7" stroke-dasharray="468 1018" transform="rotate(165, 400, 400)" stroke-dashoffset="292" opacity="0.25"></circle><circle r="153" cx="400" cy="400" stroke-width="7" stroke-dasharray="416 961" transform="rotate(156, 400, 400)" stroke-dashoffset="292" opacity="0.99"></circle><circle r="144" cx="400" cy="400" stroke-width="7" stroke-dasharray="367 905" transform="rotate(146, 400, 400)" stroke-dashoffset="292" opacity="0.79"></circle><circle r="135" cx="400" cy="400" stroke-width="7" stroke-dasharray="321 848" transform="rotate(136, 400, 400)" stroke-dashoffset="292" opacity="0.61"></circle><circle r="126" cx="400" cy="400" stroke-width="7" stroke-dasharray="278 792" transform="rotate(126, 400, 400)" stroke-dashoffset="292" opacity="0.10"></circle><circle r="117" cx="400" cy="400" stroke-width="7" stroke-dasharray="238 735" transform="rotate(117, 400, 400)" stroke-dashoffset="292" opacity="0.62"></circle><circle r="108" cx="400" cy="400" stroke-width="7" stroke-dasharray="202 679" transform="rotate(107, 400, 400)" stroke-dashoffset="292" opacity="0.20"></circle><circle r="99" cx="400" cy="400" stroke-width="7" stroke-dasharray="168 622" transform="rotate(97, 400, 400)" stroke-dashoffset="292" opacity="0.64"></circle><circle r="90" cx="400" cy="400" stroke-width="7" stroke-dasharray="138 565" transform="rotate(88, 400, 400)" stroke-dashoffset="292" opacity="0.36"></circle><circle r="81" cx="400" cy="400" stroke-width="7" stroke-dasharray="110 509" transform="rotate(78, 400, 400)" stroke-dashoffset="292" opacity="0.58"></circle><circle r="72" cx="400" cy="400" stroke-width="7" stroke-dasharray="86 452" transform="rotate(68, 400, 400)" stroke-dashoffset="292" opacity="0.80"></circle><circle r="63" cx="400" cy="400" stroke-width="7" stroke-dasharray="64 396" transform="rotate(58, 400, 400)" stroke-dashoffset="292" opacity="0.24"></circle><circle r="54" cx="400" cy="400" stroke-width="7" stroke-dasharray="46 339" transform="rotate(49, 400, 400)" stroke-dashoffset="292" opacity="0.75"></circle><circle r="45" cx="400" cy="400" stroke-width="7" stroke-dasharray="31 283" transform="rotate(39, 400, 400)" stroke-dashoffset="292" opacity="0.78"></circle><circle r="36" cx="400" cy="400" stroke-width="7" stroke-dasharray="18 226" transform="rotate(29, 400, 400)" stroke-dashoffset="292" opacity="0.50"></circle><circle r="27" cx="400" cy="400" stroke-width="7" stroke-dasharray="9 170" transform="rotate(19, 400, 400)" stroke-dashoffset="292" opacity="0.09"></circle><circle r="18" cx="400" cy="400" stroke-width="7" stroke-dasharray="3 113" transform="rotate(10, 400, 400)" stroke-dashoffset="292" opacity="0.71"></circle><circle r="9" cx="400" cy="400" stroke-width="7" stroke-dasharray="0 57" stroke-dashoffset="292" opacity="0.36"></circle></g></svg>