<svg xmlns="http://www.w3.org/2000/svg" version="1.1" xmlns:xlink="http://www.w3.org/1999/xlink" xmlns:svgjs="http://svgjs.com/svgjs" width="1440" height="560" preserveAspectRatio="none" viewBox="0 0 1440 560"><g mask="url(&quot;#SvgjsMask1004&quot;)" fill="none"><path d="M0 142.21L10 189.31L20 171.55L30 191.62L40 258.68L50 264.18L60 317.53L70 385.16L80 368.24L90 414.3L100 416.55L110 465.04L120 423.76L130 357.57L140 416.41L150 357.99L160 325.43L170 375.27L180 429.06L190 429.58L200 401.66L210 415.45L220 386.07L230 403.52L240 464.83L250 431.27L260 376.63L270 309.06L280 343.4L290 405.12L300 411.98L310 414.51L320 445.47L330 459.07L340 421.92L350 400.06L360 425.58L370 447.04L380 399.41L390 465.23L400 434.3L410 454.29L420 469.43L430 516.34L440 545.14L450 528.11L460 539.03L470 523.82L480 461.85L490 489.23L500 466.44L510 441.67L520 436.08L530 453.33L540 499.38L550 474.35L560 505.34L570 504.42L580 448.36L590 416.06L600 434.67L610 449.45L620 473.42L630 495.74L640 515.18L650 455.91L660 502.42L670 534.19L680 535.76L690 553.74L700 500.79L710 510.55L720 440.72L730 430.85L740 457.94L750 428L760 400.78L770 331.04L780 380.7L790 432.05L800 473.72L810 514.64L820 527.79L830 524.32L840 485.44L850 527.75L860 484.93L870 481.93L880 503.93L890 482.78L900 458.56L910 402.33L920 422.92L930 448.86L940 483.58L950 414.78L960 355.4L970 347.27L980 400.5L990 383.8L1000 323.4L1010 277L1020 220.36L1030 193.15L1040 184.83L1050 150.81L1060 149.91L1070 208.03L1080 228.08L1090 212.57L1100 281.13L1110 257.4L1120 296.36L1130 333.44L1140 355.35L1150 345.83L1160 389.74L1170 361.53L1180 338.29L1190 361.02L1200 422.76L1210 388.36L1220 416.96L1230 432.58L1240 441.79L1250 418.66L1260 368.41L1270 353.82L1280 379.73L1290 381.69L1300 393.21L1310 453.38L1320 436.48L1330 484.51L1340 524.72L1350 480.01L1360 506.1L1370 533.32L1380 532.56L1390 473.46L1400 459L1410 514.17L1420 487.66L1430 437.64L1440 416.06" stroke="rgba(255, 0, 239, 1)" stroke-width="2"></path><path d="M0 142.21L10 189.31L20 171.55L30 191.62L40 258.68L50 264.18L60 317.53L70 385.16L80 368.24L90 414.3L100 416.55L110 465.04L120 423.76L130 357.57L140 416.41L150 357.99L160 325.43L170 375.27L180 429.06L190 429.58L200 401.66L210 415.45L220 386.07L230 403.52L240 464.83L250 431.27L260 376.63L270 309.06L280 343.4L290 405.12L300 411.98L310 414.51L320 445.47L330 459.07L340 421.92L350 400.06L360 425.58L370 447.04L380 399.41L390 465.23L400 434.3L410 454.29L420 469.43L430 516.34L440 545.14L450 528.11L460 539.03L470 523.82L480 461.85L490 489.23L500 466.44L510 441.67L520 436.08L530 453.33L540 499.38L550 474.35L560 505.34L570 504.42L580 448.36L590 416.06L600 434.67L610 449.45L620 473.42L630 495.74L640 515.18L650 455.91L660 502.42L670 534.19L680 535.76L690 553.74L700 500.79L710 510.55L720 440.72L730 430.85L740 457.94L750 428L760 400.78L770 331.04L780 380.7L790 432.05L800 473.72L810 514.64L820 527.79L830 524.32L840 485.44L850 527.75L860 484.93L870 481.93L880 503.93L890 482.78L900 458.56L910 402.33L920 422.92L930 448.86L940 483.58L950 414.78L960 355.4L970 347.27L980 400.5L990 383.8L1000 323.4L1010 277L1020 220.36L1030 193.15L1040 184.83L1050 150.81L1060 149.91L1070 208.03L1080 228.08L1090 212.57L1100 281.13L1110 257.4L1120 296.36L1130 333.44L1140 355.35L1150 345.83L1160 389.74L1170 361.53L1180 338.29L1190 361.02L1200 422.76L1210 388.36L1220 416.96L1230 432.58L1240 441.79L1250 418.66L1260 368.41L1270 353.82L1280 379.73L1290 381.69L1300 393.21L1310 453.38L1320 436.48L1330 484.51L1340 524.72L1350 480.01L1360 506.1L1370 533.32L1380 532.56L1390 473.46L1400 459L1410 514.17L1420 487.66L1430 437.64L1440 416.06L1440 560L0 560z" fill="url(#SvgjsLinearGradient1005)"></path></g><defs><mask id="SvgjsMask1004"><rect width="1440" height="560" fill="#ffffff"></rect></mask><linearGradient x1="50%" y1="0%" x2="50%" y2="100%" id="SvgjsLinearGradient1005"><stop stop-opacity="0.65" stop-color="rgba(255, 0, 239, 1)" offset="0"></stop><stop stop-opacity="0" stop-color="#ffe0fd" offset="0.8"></stop></linearGradient></defs></svg>