<?xml version="1.0" encoding="UTF-8" standalone="no"?>
<!DOCTYPE svg PUBLIC "-//W3C//DTD SVG 1.1//EN" "http://www.w3.org/Graphics/SVG/1.1/DTD/svg11.dtd">
<svg width="100%" height="100%" viewBox="0 0 1580 2083" version="1.1" xmlns="http://www.w3.org/2000/svg" xmlns:xlink="http://www.w3.org/1999/xlink" xml:space="preserve" xmlns:serif="http://www.serif.com/" style="fill-rule:evenodd;clip-rule:evenodd;stroke-linecap:round;stroke-linejoin:round;stroke-miterlimit:1.5;">
    <g transform="matrix(1,0,0,1,-122.977982,-173.820743)">
        <g transform="matrix(1.091711,0,0,1.720786,0,0)">
            <g id="Smile" transform="matrix(0.915993,0,0,0.58113,-353.25599,-221.639952)">
                <g id="Horn">
                    <g id="Horn-5" serif:id="Horn 5" transform="matrix(-0.222252,0.974989,-0.974989,-0.222252,2735.775099,173.206406)">
                        <path d="M1391.018,700.257C1428.382,646.785 1480.604,602.002 1503.364,612.524C1557.393,637.503 1577.507,778.019 1572.504,823.535C1521.5,788.98 1442.351,713.601 1391.018,700.257Z" style="fill:rgb(79,156,146);"/>
                        <path d="M1361.987,679.971C1391.919,637.135 1430.917,599.927 1460.116,585.135C1483.244,573.417 1503.783,573.7 1518.226,580.377C1540.811,590.818 1560.868,614.284 1575.277,645.782C1602.152,704.528 1611.609,791.92 1607.709,827.405C1606.352,839.746 1598.633,850.476 1587.363,855.684C1576.092,860.893 1562.918,859.82 1552.639,852.856C1521.815,831.973 1480.76,796.321 1441.7,768.21C1419.968,752.57 1399.367,739.021 1382.107,734.534C1370.884,731.616 1361.801,723.39 1357.789,712.51C1353.777,701.63 1355.345,689.476 1361.987,679.971ZM1391.018,700.257C1442.351,713.601 1521.5,788.98 1572.504,823.535C1577.507,778.019 1557.393,637.503 1503.364,612.524C1480.604,602.002 1428.382,646.785 1391.018,700.257Z" style="fill:rgb(50,37,26);"/>
                    </g>
                    <g id="Horn-4" serif:id="Horn 4" transform="matrix(0.305368,0.952234,-0.952234,0.305368,2001.342844,-444.163134)">
                        <path d="M1391.018,700.257C1428.382,646.785 1482.713,602.155 1505.474,612.678C1559.503,637.656 1577.507,778.019 1572.504,823.535C1521.5,788.98 1442.351,713.601 1391.018,700.257Z" style="fill:rgb(79,156,146);"/>
                        <path d="M1361.987,679.971C1391.967,637.066 1432.162,599.845 1462.118,585.081C1485.468,573.572 1506.101,573.949 1520.336,580.53C1543.035,591.024 1562.959,614.577 1577.069,646.207C1603.214,704.815 1611.603,791.973 1607.709,827.405C1606.352,839.746 1598.633,850.476 1587.363,855.684C1576.092,860.893 1562.918,859.82 1552.639,852.856C1521.815,831.973 1480.76,796.321 1441.7,768.21C1419.968,752.57 1399.367,739.021 1382.107,734.534C1370.884,731.616 1361.801,723.39 1357.789,712.51C1353.777,701.63 1355.345,689.476 1361.987,679.971ZM1391.018,700.257C1442.351,713.601 1521.5,788.98 1572.504,823.535C1577.507,778.019 1559.503,637.656 1505.474,612.678C1482.713,602.155 1428.382,646.785 1391.018,700.257Z" style="fill:rgb(50,37,26);"/>
                    </g>
                    <g id="Horn-3" serif:id="Horn 3" transform="matrix(0.795305,0.606209,-0.606209,0.795305,953.135246,-578.928914)">
                        <path d="M1383.184,715.412C1427.53,673.662 1489.867,616.128 1512.628,626.651C1566.657,651.629 1566.856,769.638 1561.853,815.154C1510.849,780.599 1434.517,728.757 1383.184,715.412Z" style="fill:rgb(79,156,146);"/>
                        <path d="M1358.906,689.626C1392.08,658.393 1435.008,619.301 1465.923,602.271C1491.27,588.307 1513.529,588.049 1527.49,594.503C1557.625,608.436 1578.582,641.196 1589.038,681.868C1601.432,730.083 1600.365,788.928 1597.057,819.024C1595.701,831.365 1587.981,842.095 1576.711,847.303C1565.441,852.512 1552.266,851.439 1541.988,844.475C1493.969,811.942 1422.601,762.253 1374.273,749.689C1361.796,746.446 1352.068,736.679 1348.872,724.19C1345.677,711.701 1349.52,698.462 1358.906,689.626ZM1383.184,715.412C1434.517,728.757 1510.849,780.599 1561.853,815.154C1566.856,769.638 1566.657,651.629 1512.628,626.651C1489.867,616.128 1427.53,673.662 1383.184,715.412Z" style="fill:rgb(50,37,26);"/>
                    </g>
                    <g id="Horn-2" serif:id="Horn 2" transform="matrix(1,0,0,1,-9.273662,-40.900692)">
                        <path d="M1377.425,710.487C1421.771,668.736 1492.61,624.74 1516.483,632.41C1566.685,648.54 1564.296,763.615 1560.084,810.959C1509.08,776.403 1428.758,723.831 1377.425,710.487Z" style="fill:rgb(79,156,146);"/>
                        <path d="M1353.148,684.7C1387.313,652.534 1435.95,619.429 1470.96,605.193C1494.636,595.566 1514.879,594.695 1527.317,598.691C1551.769,606.548 1570.593,626.986 1581.901,656.452C1599.976,703.549 1598.641,777.239 1595.362,814.097C1594.25,826.594 1586.609,837.571 1575.275,842.952C1563.941,848.334 1550.606,847.317 1540.219,840.28C1492.147,807.711 1416.896,757.342 1368.514,744.764C1356.037,741.52 1346.309,731.754 1343.113,719.265C1339.918,706.776 1343.762,693.537 1353.148,684.7ZM1377.425,710.487C1428.758,723.831 1509.08,776.403 1560.084,810.959C1564.296,763.615 1566.685,648.54 1516.483,632.41C1492.61,624.74 1421.771,668.736 1377.425,710.487Z" style="fill:rgb(50,37,26);"/>
                    </g>
                </g>
                <g id="Left-Hand" serif:id="Left Hand">
                    <path d="M761.728,2098.047L870.538,1697.18C650.239,1901.344 662.211,2001.377 667.706,2027.012C680.748,2087.85 725.761,2088.373 761.728,2098.047Z" style="fill:rgb(107,179,105);"/>
                    <path d="M752.529,2132.248C705.406,2119.574 650.163,2114.144 633.077,2034.436C627.098,2006.546 606.783,1893.33 846.464,1671.203C858.054,1660.462 875.357,1658.698 888.875,1666.88C902.394,1675.061 908.857,1691.208 904.718,1706.457L795.908,2107.324C790.792,2126.171 771.387,2137.32 752.529,2132.248ZM761.728,2098.047L870.538,1697.18C650.239,1901.344 662.211,2001.377 667.706,2027.012C680.748,2087.85 725.761,2088.373 761.728,2098.047Z" style="fill:rgb(50,37,26);"/>
                </g>
                <g id="Left-Leg" serif:id="Left Leg">
                    <path d="M842.929,2297.117C878.456,2504.999 930.714,2576.499 1015.211,2563.674C1106.223,2549.86 1131.19,2503.008 1147.356,2411.051L842.929,2297.117Z" style="fill:rgb(107,179,105);"/>
                    <path d="M855.343,2263.948L1159.77,2377.881C1175.747,2383.861 1185.191,2400.381 1182.237,2417.183C1170.809,2482.192 1153.411,2527.094 1119.948,2556.91C1096.666,2577.653 1065.289,2591.895 1020.525,2598.689C964.423,2607.205 918.476,2588.87 881.204,2532.756C851.324,2487.77 826.929,2413.739 808.018,2303.084C805.883,2290.588 810.589,2277.903 820.358,2269.824C830.128,2261.745 843.47,2259.504 855.343,2263.948ZM842.929,2297.117C878.456,2504.999 930.714,2576.499 1015.211,2563.674C1106.223,2549.86 1131.19,2503.008 1147.356,2411.051L842.929,2297.117Z" style="fill:rgb(50,37,26);"/>
                </g>
                <path id="Body" d="M618.085,1166.2C632.402,856.351 811.254,679.349 1118.074,655.614C1597.128,618.555 1763.952,985.007 1750.242,1250.754C1741.281,1424.44 1670.019,1497.392 1619.59,1615.442C1601.886,1647.503 1651.645,1953.305 1690.73,2044.537C1728.647,2133.04 1779.379,2186.088 1882.799,2226C1961.618,2256.417 2034.26,2254.174 2051.952,2268.261C2070.33,2332.374 1816.868,2424.731 1656.602,2426.748C1646.334,2426.877 1271.964,2452.454 1175.427,2442.765C1019.062,2427.073 796.251,2391.791 765.266,2134.967C749.253,2002.236 789.842,1870.42 883.675,1687.742C878.502,1687.915 873.308,1688.089 868.148,1687.681C786.856,1681.257 650.98,1593.359 604.819,1533.419C521.207,1424.847 522.238,1247.609 618.085,1166.2Z" style="fill:rgb(107,179,105);"/>
                <clipPath id="_clip1">
                    <path id="Body1" serif:id="Body" d="M618.085,1166.2C632.402,856.351 811.254,679.349 1118.074,655.614C1597.128,618.555 1763.952,985.007 1750.242,1250.754C1741.281,1424.44 1670.019,1497.392 1619.59,1615.442C1601.886,1647.503 1651.645,1953.305 1690.73,2044.537C1728.647,2133.04 1779.379,2186.088 1882.799,2226C1961.618,2256.417 2034.26,2254.174 2051.952,2268.261C2070.33,2332.374 1816.868,2424.731 1656.602,2426.748C1646.334,2426.877 1271.964,2452.454 1175.427,2442.765C1019.062,2427.073 796.251,2391.791 765.266,2134.967C749.253,2002.236 789.842,1870.42 883.675,1687.742C878.502,1687.915 873.308,1688.089 868.148,1687.681C786.856,1681.257 650.98,1593.359 604.819,1533.419C521.207,1424.847 522.238,1247.609 618.085,1166.2Z"/>
                </clipPath>
                <g clip-path="url(#_clip1)">
                    <path id="Right-Hand" serif:id="Right Hand" d="M1339.815,1872.866C1393.605,2039.908 1441.335,2144.912 1531.812,2130.948C1616.083,2117.941 1617.659,1938.724 1549.17,1767.436" style="fill:none;stroke:rgb(50,37,26);stroke-width:35.42px;"/>
                    <g id="Eyes">
                        <g transform="matrix(2.477026,0,0,2.477026,-1091.116904,-1677.925433)">
                            <circle cx="738.162" cy="1142.829" r="22.878" style="fill:rgb(46,28,18);"/>
                        </g>
                        <g transform="matrix(2.61411,0,0,2.599925,-687.328208,-1802.621145)">
                            <circle cx="738.162" cy="1142.829" r="22.878" style="fill:rgb(46,28,18);"/>
                        </g>
                    </g>
                    <path id="Mouse" d="M762.201,1325.799C917.003,1354.992 980.831,1348.577 1176.155,1347.697C1178.281,1418.536 1070.354,1526.422 955.741,1508.705C836.935,1490.339 762.483,1417.243 762.201,1325.799Z" style="fill:rgb(145,44,36);"/>
                    <clipPath id="_clip2">
                        <path id="Mouse1" serif:id="Mouse" d="M762.201,1325.799C917.003,1354.992 980.831,1348.577 1176.155,1347.697C1178.281,1418.536 1070.354,1526.422 955.741,1508.705C836.935,1490.339 762.483,1417.243 762.201,1325.799Z"/>
                    </clipPath>
                    <g clip-path="url(#_clip2)">
                        <g transform="matrix(1,0,0,1,-1.942973,3.145161)">
                            <path d="M857.878,1478.232C876.44,1437.308 930.99,1391.122 1016.302,1379.065C1068.719,1371.657 1122.018,1392.553 1163.574,1408.63C1128.257,1461.202 1076.977,1496.553 1038.555,1507.763C975.846,1526.061 890.691,1498.68 857.878,1478.232Z" style="fill:rgb(227,73,75);"/>
                        </g>
                    </g>
                    <path id="Mouse2" serif:id="Mouse" d="M767.992,1295.091C920.572,1323.864 983.495,1317.315 1176.014,1316.447C1192.962,1316.371 1206.882,1329.818 1207.391,1346.759C1208.439,1381.668 1189.547,1424.692 1155.359,1461.381C1107.315,1512.939 1030.337,1551.857 950.967,1539.588C814.129,1518.435 731.276,1431.219 730.951,1325.896C730.922,1316.577 735.054,1307.731 742.219,1301.773C749.384,1295.814 758.834,1293.364 767.992,1295.091ZM762.201,1325.799C762.483,1417.243 836.935,1490.339 955.741,1508.705C1070.354,1526.422 1178.281,1418.536 1176.155,1347.697C980.831,1348.577 917.003,1354.992 762.201,1325.799Z" style="fill:rgb(48,31,23);"/>
                </g>
                <path id="Body2" serif:id="Body" d="M1652.223,1629.208C1652.145,1633.454 1651.622,1668.775 1654.991,1701.383C1665.672,1804.763 1696.764,1968.686 1723.285,2030.59C1757.254,2109.879 1802.897,2157.201 1895.55,2192.958C1948.244,2213.294 1998.117,2218.047 2029.053,2223.862C2050.553,2227.904 2065.793,2234.009 2074.014,2240.555C2079.778,2245.145 2083.967,2251.419 2085.998,2258.502C2090.743,2275.058 2088.551,2292.745 2077.806,2310.61C2068.165,2326.642 2049.735,2344.054 2023.812,2360.364C1941.341,2412.252 1775.193,2460.675 1657.048,2462.162C1646.695,2462.292 1269.225,2487.774 1171.89,2478.005C1002.13,2460.968 763.744,2418.034 730.105,2139.209C714.717,2011.667 747.973,1884.57 829.687,1716.495C740.843,1692.704 620.984,1612.455 576.759,1555.028C520.719,1482.259 498.488,1381.932 512.98,1293.625C522.124,1237.904 545.767,1187.085 583.509,1149.871C593.5,991.848 645.499,867.551 733.188,778.732C823.443,687.314 952.17,632.926 1115.342,620.303C1318.219,604.609 1467.922,658.313 1573.94,745.161C1733.411,875.797 1794.345,1083.295 1785.611,1252.579C1776.369,1431.72 1704.251,1507.487 1652.223,1629.208ZM618.085,1166.2C522.238,1247.609 521.207,1424.847 604.819,1533.419C650.98,1593.359 786.856,1681.257 868.148,1687.681C873.308,1688.089 878.502,1687.915 883.675,1687.742C789.842,1870.42 749.253,2002.236 765.266,2134.967C796.251,2391.791 1019.062,2427.073 1175.427,2442.765C1271.964,2452.454 1646.334,2426.877 1656.602,2426.748C1816.868,2424.731 2070.33,2332.374 2051.952,2268.261C2034.26,2254.174 1961.618,2256.417 1882.799,2226C1779.379,2186.088 1728.647,2133.04 1690.73,2044.537C1651.645,1953.305 1601.886,1647.503 1619.59,1615.442C1670.019,1497.392 1741.281,1424.44 1750.242,1250.754C1763.952,985.007 1597.128,618.555 1118.074,655.614C811.254,679.349 632.402,856.351 618.085,1166.2Z" style="fill:rgb(50,37,26);"/>
                <g id="Right-Leg" serif:id="Right Leg" transform="matrix(1,0,0,1,-7.968249,22.617383)">
                    <path d="M1283.657,2372.998C1286.483,2528.803 1376.35,2602.293 1453.709,2597.508C1557.057,2591.115 1615.684,2478.385 1622.873,2316.53" style="fill:rgb(107,179,105);stroke:rgb(50,37,26);stroke-width:35.42px;"/>
                </g>
            </g>
        </g>
    </g>
</svg>
