<?xml version="1.0" encoding="UTF-8" standalone="no"?><!DOCTYPE svg PUBLIC "-//W3C//DTD SVG 1.1//EN" "http://www.w3.org/Graphics/SVG/1.1/DTD/svg11.dtd"><svg width="100%" height="100%" viewBox="0 0 519 519" version="1.1" xmlns="http://www.w3.org/2000/svg" xmlns:xlink="http://www.w3.org/1999/xlink" xml:space="preserve" xmlns:serif="http://www.serif.com/" style="fill-rule:evenodd;clip-rule:evenodd;stroke-linecap:round;stroke-linejoin:round;stroke-miterlimit:1.5;"><clipPath id="_clip1"><rect x="0" y="0" width="518.209" height="518.209"/></clipPath><g clip-path="url(#_clip1)"><g id="Smile"><g id="Horn"><path id="Horn-5" serif:id="Horn 5" d="M416.734,321.174c11.92,13.139 20.638,29.693 16.472,35.092c-9.889,12.816 -48.363,9.656 -60.129,5.579c12.245,-11.435 37.016,-27.866 43.657,-40.67Z" style="fill:#4f9c92;"/><path d="M423.029,315.462c9.407,10.369 16.83,22.757 18.955,31.265c1.603,6.416 0.43,11.517 -2.049,14.73c-3.996,5.18 -11.208,8.904 -20.125,10.757c-16.995,3.532 -40.454,0.801 -49.517,-2.34c-2.815,-0.976 -4.914,-3.354 -5.532,-6.269c-0.618,-2.915 0.336,-5.941 2.514,-7.974c7.394,-6.905 19.32,-15.628 29.126,-24.278c5.582,-4.924 10.504,-9.692 12.787,-14.093c1.281,-2.47 3.691,-4.157 6.451,-4.516c2.76,-0.358 5.52,0.657 7.39,2.718Zm-6.295,5.711c-6.641,12.804 -31.412,29.235 -43.657,40.67c11.766,4.078 50.24,7.238 60.129,-5.579c4.166,-5.399 -4.552,-21.953 -16.472,-35.092Z" style="fill:#32251a;"/><path id="Horn-4" serif:id="Horn 4" d="M420.931,245.148c16.95,5.235 33.02,15.599 32.185,22.367c-1.982,16.066 -36.835,32.385 -49.038,34.87c4.713,-16.078 17.66,-42.835 16.853,-57.236Z" style="fill:#4f9c92;"/><path d="M423.439,237.027c13.396,4.138 26.192,11.322 32.409,17.755c4.618,4.779 6.194,9.8 5.704,13.773c-0.805,6.523 -5.145,13.372 -11.928,19.441c-12.852,11.5 -34.464,20.806 -43.85,22.717c-2.92,0.594 -5.938,-0.383 -7.954,-2.577c-2.016,-2.194 -2.737,-5.283 -1.898,-8.143c2.846,-9.708 8.665,-23.289 12.698,-35.728c2.295,-7.081 4.103,-13.691 3.825,-18.641c-0.156,-2.779 1.059,-5.458 3.251,-7.172c2.192,-1.714 5.085,-2.247 7.744,-1.425Zm-2.508,8.121c0.807,14.402 -12.14,41.158 -16.853,57.236c12.203,-2.484 47.056,-18.803 49.038,-34.87c0.835,-6.768 -15.235,-17.131 -32.185,-22.367Z" style="fill:#32251a;"/><path id="Horn-3" serif:id="Horn 3" d="M382.91,172.888c16.474,-1.719 39.442,-3.886 42.63,2.142c7.568,14.31 -11.844,39.866 -20.43,48.886c-5.335,-15.882 -13.298,-39.679 -22.2,-51.028Z" style="fill:#4f9c92;"/><path d="M382.027,164.434c12.231,-1.276 27.841,-2.66 37.264,-1.257c7.315,1.089 11.925,4.405 13.763,7.88c4.081,7.716 3.163,17.903 -1.133,28.073c-5.211,12.336 -15.039,24.748 -20.654,30.647c-2.054,2.158 -5.089,3.083 -7.998,2.438c-2.909,-0.645 -5.268,-2.767 -6.216,-5.592c-5.059,-15.062 -12.388,-37.726 -20.83,-48.489c-1.91,-2.434 -2.346,-5.714 -1.138,-8.563c1.207,-2.849 3.867,-4.816 6.944,-5.138Zm0.882,8.454c8.903,11.349 16.866,35.146 22.2,51.028c8.586,-9.02 27.998,-34.576 20.43,-48.886c-3.188,-6.028 -26.156,-3.862 -42.63,-2.142Z" style="fill:#32251a;"/><path id="Horn-2" serif:id="Horn 2" d="M314.554,129.659c12.06,-11.354 31.325,-23.319 37.818,-21.233c13.652,4.386 13.003,35.682 11.857,48.557c-13.871,-9.398 -35.715,-23.695 -49.675,-27.324Z" style="fill:#4f9c92;"/><path d="M308.728,123.47c9.192,-8.654 22.271,-17.568 31.69,-21.398c6.117,-2.487 11.34,-2.772 14.554,-1.739c6.349,2.04 11.198,7.385 14.134,15.036c4.857,12.656 4.471,32.462 3.59,42.366c-0.267,2.999 -2.101,5.634 -4.821,6.925c-2.72,1.292 -5.921,1.048 -8.413,-0.641c-13.167,-8.921 -33.794,-22.689 -47.046,-26.134c-2.994,-0.778 -5.329,-3.122 -6.096,-6.12c-0.767,-2.997 0.156,-6.175 2.408,-8.296Zm5.827,6.189c13.96,3.629 35.804,17.926 49.675,27.324c1.146,-12.875 1.795,-44.171 -11.857,-48.557c-6.492,-2.086 -25.758,9.879 -37.818,21.233Z" style="fill:#32251a;"/></g><g id="Left-Hand" serif:id="Left Hand"><path d="M149.634,518.136l29.592,-109.018c-59.911,55.523 -56.655,82.728 -55.161,89.7c3.547,16.545 15.788,16.687 25.57,19.318Z" style="fill:#6bb369;"/><path d="M147.427,526.344c-12.458,-3.351 -27.156,-4.672 -31.673,-25.745c-1.61,-7.513 -6.867,-37.882 57.694,-97.716c2.782,-2.578 6.934,-3.001 10.179,-1.038c3.244,1.963 4.796,5.839 3.802,9.499l-29.592,109.018c-1.228,4.523 -5.885,7.199 -10.411,5.982Zm2.208,-8.208l29.592,-109.018c-59.911,55.523 -56.655,82.728 -55.161,89.7c3.547,16.545 15.788,16.687 25.57,19.318Z" style="fill:#32251a;"/></g><path id="Body" d="M110.57,264.716c3.893,-84.265 52.533,-132.401 135.974,-138.856c130.281,-10.078 175.65,89.58 171.921,161.851c-2.437,47.235 -21.817,67.074 -35.531,99.179c-4.815,8.719 8.717,91.883 19.347,116.694c10.311,24.069 24.108,38.495 52.234,49.35c21.435,8.272 41.191,7.662 46.002,11.493c4.998,17.436 -63.932,42.553 -107.517,43.101c-2.792,0.035 -104.604,6.991 -130.858,4.356c-42.524,-4.268 -103.119,-13.863 -111.545,-83.707c-4.355,-36.097 6.684,-71.945 32.202,-121.625c-1.407,0.047 -2.819,0.094 -4.222,-0.017c-22.108,-1.747 -59.06,-25.651 -71.614,-41.952c-22.739,-29.526 -22.458,-77.727 3.608,-99.867Z" style="fill:#6bb369;"/><clipPath id="_clip2"><path id="Body1" serif:id="Body" d="M110.57,264.716c3.893,-84.265 52.533,-132.401 135.974,-138.856c130.281,-10.078 175.65,89.58 171.921,161.851c-2.437,47.235 -21.817,67.074 -35.531,99.179c-4.815,8.719 8.717,91.883 19.347,116.694c10.311,24.069 24.108,38.495 52.234,49.35c21.435,8.272 41.191,7.662 46.002,11.493c4.998,17.436 -63.932,42.553 -107.517,43.101c-2.792,0.035 -104.604,6.991 -130.858,4.356c-42.524,-4.268 -103.119,-13.863 -111.545,-83.707c-4.355,-36.097 6.684,-71.945 32.202,-121.625c-1.407,0.047 -2.819,0.094 -4.222,-0.017c-22.108,-1.747 -59.06,-25.651 -71.614,-41.952c-22.739,-29.526 -22.458,-77.727 3.608,-99.867Z"/></clipPath><g clip-path="url(#_clip2)"><path id="Right-Hand" serif:id="Right Hand" d="M306.848,456.897c14.628,45.428 27.609,73.984 52.214,70.187c22.918,-3.537 23.347,-52.276 4.721,-98.859" style="fill:none;stroke:#32251a;stroke-width:8.5px;"/><g id="Eyes"><circle cx="142.999" cy="261.096" r="15.411" style="fill:#2e1c12;"/><ellipse cx="280.331" cy="265.382" rx="16.264" ry="16.176" style="fill:#2e1c12;"/></g><path id="Mouse" d="M149.763,308.119c42.099,7.939 59.458,6.194 112.577,5.955c0.578,19.265 -28.773,48.605 -59.943,43.787c-32.31,-4.995 -52.557,-24.873 -52.634,-49.742Z" style="fill:#912c24;"/><clipPath id="_clip3"><path id="Mouse1" serif:id="Mouse" d="M149.763,308.119c42.099,7.939 59.458,6.194 112.577,5.955c0.578,19.265 -28.773,48.605 -59.943,43.787c-32.31,-4.995 -52.557,-24.873 -52.634,-49.742Z"/></clipPath><g clip-path="url(#_clip3)"><path d="M175.255,350.43c5.048,-11.129 19.883,-23.69 43.084,-26.969c14.255,-2.015 28.75,3.668 40.051,8.04c-9.604,14.297 -23.55,23.911 -33.999,26.96c-17.054,4.976 -40.212,-2.47 -49.136,-8.031Z" style="fill:#e3494b;"/></g><path id="Mouse2" serif:id="Mouse" d="M151.153,300.749c41.566,7.838 58.707,6.062 111.153,5.825c4.068,-0.018 7.408,3.209 7.53,7.275c0.279,9.283 -4.791,20.704 -13.883,30.461c-12.861,13.802 -33.456,24.247 -54.702,20.963c-36.637,-5.663 -58.901,-28.932 -58.988,-57.131c-0.007,-2.237 0.985,-4.359 2.704,-5.79c1.72,-1.43 3.988,-2.018 6.186,-1.604Zm-1.39,7.37c0.077,24.869 20.324,44.747 52.634,49.742c31.17,4.818 60.521,-24.522 59.943,-43.787c-53.119,0.239 -70.477,1.984 -112.577,-5.955Z" style="fill:#301f17;"/></g><path id="Body2" serif:id="Body" d="M390.72,390.299c-0.025,1.053 -0.228,10.95 0.715,20.079c2.916,28.219 11.419,72.961 18.658,89.859c9.364,21.858 21.94,34.91 47.481,44.767c14.41,5.561 28.045,6.871 36.505,8.461c5.603,1.053 9.589,2.607 11.731,4.313c1.383,1.102 2.389,2.607 2.876,4.307c1.209,4.219 0.628,8.723 -2.11,13.276c-2.553,4.245 -7.452,8.837 -14.317,13.156c-22.295,14.028 -67.215,27.109 -99.155,27.511c-2.813,0.035 -105.369,6.968 -131.814,4.314c-45.739,-4.59 -110.072,-16.022 -119.135,-91.147c-4.2,-34.814 5.037,-69.494 27.58,-115.567c-24.042,-5.905 -57.364,-28.088 -69.509,-43.859c-15.053,-19.546 -21.017,-46.496 -17.125,-70.216c2.472,-15.061 8.888,-28.791 19.166,-38.774c2.63,-42.868 16.654,-76.582 40.409,-100.642c24.373,-24.687 59.147,-39.344 103.211,-42.752c54.814,-4.24 95.269,10.238 123.913,33.703c43.073,35.284 59.511,91.337 57.152,137.061c-2.505,48.561 -22.104,69.074 -36.203,102.08l-0.03,0.07Zm-280.15,-125.583c-26.066,22.14 -26.346,70.34 -3.608,99.867c12.554,16.301 49.506,40.205 71.614,41.952c1.403,0.111 2.816,0.064 4.222,0.017c-25.518,49.68 -36.557,85.528 -32.202,121.625c8.426,69.844 69.021,79.439 111.545,83.707c26.254,2.635 128.065,-4.321 130.858,-4.356c43.585,-0.548 112.515,-25.665 107.517,-43.101c-4.811,-3.831 -24.567,-3.221 -46.002,-11.493c-28.125,-10.854 -41.922,-25.281 -52.234,-49.35c-10.629,-24.811 -24.162,-107.975 -19.347,-116.694c13.714,-32.104 33.094,-51.944 35.531,-99.179c3.729,-72.271 -41.64,-171.929 -171.921,-161.851c-83.441,6.455 -132.081,54.591 -135.974,138.856Z" style="fill:#32251a;"/></g></g></svg>